<?xml version="1.0" encoding="utf-8"?>
<!-- Generator: Adobe Illustrator 20.0.0, SVG Export Plug-In . SVG Version: 6.00 Build 0)  -->
<svg version="1.1" id="Layer_1" xmlns="http://www.w3.org/2000/svg" xmlns:xlink="http://www.w3.org/1999/xlink" x="0px" y="0px"
	 viewBox="0 0 244.8 177" style="enable-background:new 0 0 244.8 177;" xml:space="preserve">
<style type="text/css">
	.st0{fill-rule:evenodd;clip-rule:evenodd;fill:#FFFFFF;}
	.st1{fill-rule:evenodd;clip-rule:evenodd;fill:#007EB6;}
	.st2{fill:none;stroke:#FFFFFF;stroke-width:0.8;stroke-linejoin:round;stroke-miterlimit:10;}
	.st3{fill-rule:evenodd;clip-rule:evenodd;fill:#33BEF2;}
	.st4{fill-rule:evenodd;clip-rule:evenodd;fill:#82C553;}
	.st5{fill-rule:evenodd;clip-rule:evenodd;fill:#194D6C;}
	.st6{fill-rule:evenodd;clip-rule:evenodd;fill:#009E9E;}
	.st7{fill-rule:evenodd;clip-rule:evenodd;fill:#9E8274;}
	.st8{fill-rule:evenodd;clip-rule:evenodd;fill:#66889D;}
	.st9{fill-rule:evenodd;clip-rule:evenodd;fill:#B2B2B2;}
	.st10{clip-path:url(#SVGID_2_);}
	.st11{fill:#191919;}
	.st12{font-family:'SourceSansPro-Regular';}
	.st13{font-size:8.825px;}
	.st14{clip-path:url(#SVGID_4_);}
	.st15{clip-path:url(#SVGID_6_);}
	.st16{clip-path:url(#SVGID_8_);}
	.st17{clip-path:url(#SVGID_10_);}
	.st18{clip-path:url(#SVGID_12_);}
	.st19{clip-path:url(#SVGID_14_);}
	.st20{clip-path:url(#SVGID_16_);}
	.st21{clip-path:url(#SVGID_18_);}
	.st22{font-size:8.85px;}
	.st23{clip-path:url(#SVGID_20_);}
	.st24{clip-path:url(#SVGID_22_);}
	.st25{clip-path:url(#SVGID_24_);}
	.st26{clip-path:url(#SVGID_26_);}
	.st27{clip-path:url(#SVGID_28_);}
	.st28{clip-path:url(#SVGID_30_);}
	.st29{clip-path:url(#SVGID_32_);}
	.st30{clip-path:url(#SVGID_34_);}
	.st31{clip-path:url(#SVGID_36_);}
	.st32{clip-path:url(#SVGID_38_);}
	.st33{clip-path:url(#SVGID_40_);}
	.st34{clip-path:url(#SVGID_42_);}
	.st35{clip-path:url(#SVGID_44_);}
	.st36{clip-path:url(#SVGID_46_);}
	.st37{clip-path:url(#SVGID_48_);}
	.st38{clip-path:url(#SVGID_50_);}
	.st39{clip-path:url(#SVGID_52_);}
	.st40{clip-path:url(#SVGID_54_);}
	.st41{clip-path:url(#SVGID_56_);}
	.st42{clip-path:url(#SVGID_58_);}
	.st43{clip-path:url(#SVGID_60_);}
	.st44{clip-path:url(#SVGID_62_);}
	.st45{clip-path:url(#SVGID_64_);}
</style>
<title>chart-1</title>
<g>
	<rect x="69.2" y="29" class="st0" width="109.6" height="108.8"/>
	<path class="st1" d="M163.3,44.7c-10.1-10.3-23.9-16.1-38.3-16.1V83L163.3,44.7z"/>
	<path class="st2" d="M163.3,44.7c-10.1-10.3-23.9-16.1-38.3-16.1V83L163.3,44.7z"/>
	<path class="st3" d="M178.9,83c0-14.4-5.6-28.1-15.7-38.3L124.9,83H178.9z"/>
	<path class="st2" d="M178.9,83c0-14.4-5.6-28.1-15.7-38.3L124.9,83H178.9z"/>
	<path class="st4" d="M163.3,121.3c10-10.2,15.7-24,15.7-38.3h-54L163.3,121.3z"/>
	<path class="st2" d="M163.3,121.3c10-10.2,15.7-24,15.7-38.3h-54L163.3,121.3z"/>
	<path class="st5" d="M123.6,137.4c14.4,0,28.2-5.8,38.3-16.1L123.6,83V137.4z"/>
	<path class="st2" d="M123.6,137.4c14.4,0,28.2-5.8,38.3-16.1L123.6,83V137.4z"/>
	<path class="st6" d="M85.3,121.3c10.1,10.3,23.9,16.1,38.3,16.1V83L85.3,121.3z"/>
	<path class="st2" d="M85.3,121.3c10.1,10.3,23.9,16.1,38.3,16.1V83L85.3,121.3z"/>
	<path class="st7" d="M70.9,83c0,14.4,5.6,28.1,15.7,38.3L124.9,83H70.9z"/>
	<path class="st2" d="M70.9,83c0,14.4,5.6,28.1,15.7,38.3L124.9,83H70.9z"/>
	<path class="st8" d="M86.6,44.7c-10,10.2-15.7,24-15.7,38.3h54L86.6,44.7z"/>
	<path class="st2" d="M86.6,44.7c-10,10.2-15.7,24-15.7,38.3h54L86.6,44.7z"/>
	<path class="st9" d="M124.9,28.6c-14.4,0-28.2,5.8-38.3,16.1L124.9,83V28.6z"/>
	<path class="st2" d="M124.9,28.6c-14.4,0-28.2,5.8-38.3,16.1L124.9,83V28.6z"/>
	<g>
		<defs>
			<rect id="SVGID_1_" x="138.6" y="5" width="52" height="88.8"/>
		</defs>
		<clipPath id="SVGID_2_">
			<use xlink:href="#SVGID_1_"  style="overflow:visible;"/>
		</clipPath>
		<g class="st10">
			<text transform="matrix(1 0 0 1 151.95 15.55)"><tspan x="0" y="0" class="st11 st12 st13">S</tspan><tspan x="4.8" y="0" class="st11 st12 st13">e</tspan><tspan x="8.8" y="0" class="st11 st12 st13">r</tspan><tspan x="12.1" y="0" class="st11 st12 st13">i</tspan><tspan x="14.4" y="0" class="st11 st12 st13">e</tspan><tspan x="18.5" y="0" class="st11 st12 st13">s</tspan><tspan x="22.5" y="0" class="st11 st12 st13"> </tspan></text>
		</g>
	</g>
	<g>
		<defs>
			<rect id="SVGID_3_" x="138.6" y="5" width="52" height="88.8"/>
		</defs>
		<clipPath id="SVGID_4_">
			<use xlink:href="#SVGID_3_"  style="overflow:visible;"/>
		</clipPath>
		<g class="st14">
			<text transform="matrix(1 0 0 1 175.9998 15.55)" class="st11 st12 st13">1</text>
		</g>
	</g>
	<g>
		<defs>
			<rect id="SVGID_5_" x="138.6" y="5" width="52" height="88.8"/>
		</defs>
		<clipPath id="SVGID_6_">
			<use xlink:href="#SVGID_5_"  style="overflow:visible;"/>
		</clipPath>
		<g class="st15">
			<text transform="matrix(1 0 0 1 158.3499 26.8)"><tspan x="0" y="0" class="st11 st12 st13">1</tspan><tspan x="4" y="0" class="st11 st12 st13">2</tspan></text>
		</g>
	</g>
	<g>
		<defs>
			<rect id="SVGID_7_" x="138.6" y="5" width="52" height="88.8"/>
		</defs>
		<clipPath id="SVGID_8_">
			<use xlink:href="#SVGID_7_"  style="overflow:visible;"/>
		</clipPath>
		<g class="st16">
			<text transform="matrix(1 0 0 1 166.3699 26.8)" class="st11 st12 st13">%</text>
		</g>
	</g>
	<g>
		<defs>
			<rect id="SVGID_9_" x="168.4" y="43.4" width="52" height="88.8"/>
		</defs>
		<clipPath id="SVGID_10_">
			<use xlink:href="#SVGID_9_"  style="overflow:visible;"/>
		</clipPath>
		<g class="st17">
			<text transform="matrix(1 0 0 1 181.4799 53.7297)"><tspan x="0" y="0" class="st11 st12 st13">S</tspan><tspan x="4.8" y="0" class="st11 st12 st13">e</tspan><tspan x="8.8" y="0" class="st11 st12 st13">r</tspan><tspan x="12" y="0" class="st11 st12 st13">i</tspan><tspan x="14.4" y="0" class="st11 st12 st13">e</tspan><tspan x="18.4" y="0" class="st11 st12 st13">s</tspan><tspan x="22.4" y="0" class="st11 st12 st13"> </tspan></text>
		</g>
	</g>
	<g>
		<defs>
			<rect id="SVGID_11_" x="168.4" y="43.4" width="52" height="88.8"/>
		</defs>
		<clipPath id="SVGID_12_">
			<use xlink:href="#SVGID_11_"  style="overflow:visible;"/>
		</clipPath>
		<g class="st18">
			<text transform="matrix(1 0 0 1 205.5502 53.7297)" class="st11 st12 st13">2</text>
		</g>
	</g>
	<g>
		<defs>
			<rect id="SVGID_13_" x="168.4" y="43.4" width="52" height="88.8"/>
		</defs>
		<clipPath id="SVGID_14_">
			<use xlink:href="#SVGID_13_"  style="overflow:visible;"/>
		</clipPath>
		<g class="st19">
			<text transform="matrix(1 0 0 1 187.8998 64.9797)"><tspan x="0" y="0" class="st11 st12 st13">1</tspan><tspan x="4" y="0" class="st11 st12 st13">2</tspan></text>
		</g>
	</g>
	<g>
		<defs>
			<rect id="SVGID_15_" x="168.4" y="43.4" width="52" height="88.8"/>
		</defs>
		<clipPath id="SVGID_16_">
			<use xlink:href="#SVGID_15_"  style="overflow:visible;"/>
		</clipPath>
		<g class="st20">
			<text transform="matrix(1 0 0 1 195.9301 64.9797)" class="st11 st12 st13">%</text>
		</g>
	</g>
	<g>
		<defs>
			<rect id="SVGID_17_" x="168.4" y="97" width="52" height="80"/>
		</defs>
		<clipPath id="SVGID_18_">
			<use xlink:href="#SVGID_17_"  style="overflow:visible;"/>
		</clipPath>
		<g class="st21">
			<text transform="matrix(1 0 0 1 181.4799 107.7248)"><tspan x="0" y="0" class="st11 st12 st22">S</tspan><tspan x="4.8" y="0" class="st11 st12 st22">e</tspan><tspan x="8.8" y="0" class="st11 st12 st22">r</tspan><tspan x="12" y="0" class="st11 st12 st22">i</tspan><tspan x="14.4" y="0" class="st11 st12 st22">e</tspan><tspan x="18.4" y="0" class="st11 st12 st22">s</tspan><tspan x="22.4" y="0" class="st11 st12 st22"> </tspan></text>
		</g>
	</g>
	<g>
		<defs>
			<rect id="SVGID_19_" x="168.4" y="97" width="52" height="80"/>
		</defs>
		<clipPath id="SVGID_20_">
			<use xlink:href="#SVGID_19_"  style="overflow:visible;"/>
		</clipPath>
		<g class="st23">
			<text transform="matrix(1 0 0 1 205.5502 107.7248)" class="st11 st12 st22">3</text>
		</g>
	</g>
	<g>
		<defs>
			<rect id="SVGID_21_" x="168.4" y="97" width="52" height="80"/>
		</defs>
		<clipPath id="SVGID_22_">
			<use xlink:href="#SVGID_21_"  style="overflow:visible;"/>
		</clipPath>
		<g class="st24">
			<text transform="matrix(1 0 0 1 187.8998 118.9748)"><tspan x="0" y="0" class="st11 st12 st22">1</tspan><tspan x="4" y="0" class="st11 st12 st22">2</tspan></text>
		</g>
	</g>
	<g>
		<defs>
			<rect id="SVGID_23_" x="168.4" y="97" width="52" height="80"/>
		</defs>
		<clipPath id="SVGID_24_">
			<use xlink:href="#SVGID_23_"  style="overflow:visible;"/>
		</clipPath>
		<g class="st25">
			<text transform="matrix(1 0 0 1 195.9301 118.9748)" class="st11 st12 st22">%</text>
		</g>
	</g>
	<g>
		<defs>
			<rect id="SVGID_25_" x="137.2" y="134.6" width="52" height="42.4"/>
		</defs>
		<clipPath id="SVGID_26_">
			<use xlink:href="#SVGID_25_"  style="overflow:visible;"/>
		</clipPath>
		<g class="st26">
			<text transform="matrix(1 0 0 1 150.6 145.8996)"><tspan x="0" y="0" class="st11 st12 st22">S</tspan><tspan x="4.8" y="0" class="st11 st12 st22">e</tspan><tspan x="8.8" y="0" class="st11 st12 st22">r</tspan><tspan x="12.1" y="0" class="st11 st12 st22">i</tspan><tspan x="14.4" y="0" class="st11 st12 st22">e</tspan><tspan x="18.5" y="0" class="st11 st12 st22">s</tspan><tspan x="22.5" y="0" class="st11 st12 st22"> </tspan></text>
		</g>
	</g>
	<g>
		<defs>
			<rect id="SVGID_27_" x="137.2" y="134.6" width="52" height="42.4"/>
		</defs>
		<clipPath id="SVGID_28_">
			<use xlink:href="#SVGID_27_"  style="overflow:visible;"/>
		</clipPath>
		<g class="st27">
			<text transform="matrix(1 0 0 1 174.6498 145.8996)" class="st11 st12 st22">4</text>
		</g>
	</g>
	<g>
		<defs>
			<rect id="SVGID_29_" x="137.2" y="134.6" width="52" height="42.4"/>
		</defs>
		<clipPath id="SVGID_30_">
			<use xlink:href="#SVGID_29_"  style="overflow:visible;"/>
		</clipPath>
		<g class="st28">
			<text transform="matrix(1 0 0 1 156.9999 157.1496)"><tspan x="0" y="0" class="st11 st12 st22">1</tspan><tspan x="4" y="0" class="st11 st12 st22">2</tspan></text>
		</g>
	</g>
	<g>
		<defs>
			<rect id="SVGID_31_" x="137.2" y="134.6" width="52" height="42.4"/>
		</defs>
		<clipPath id="SVGID_32_">
			<use xlink:href="#SVGID_31_"  style="overflow:visible;"/>
		</clipPath>
		<g class="st29">
			<text transform="matrix(1 0 0 1 165.02 157.1496)" class="st11 st12 st22">%</text>
		</g>
	</g>
	<g>
		<defs>
			<rect id="SVGID_33_" x="59.4" y="134.6" width="52" height="42.4"/>
		</defs>
		<clipPath id="SVGID_34_">
			<use xlink:href="#SVGID_33_"  style="overflow:visible;"/>
		</clipPath>
		<g class="st30">
			<text transform="matrix(1 0 0 1 72.3699 145.8996)"><tspan x="0" y="0" class="st11 st12 st22">S</tspan><tspan x="4.8" y="0" class="st11 st12 st22">e</tspan><tspan x="8.8" y="0" class="st11 st12 st22">r</tspan><tspan x="12.1" y="0" class="st11 st12 st22">i</tspan><tspan x="14.5" y="0" class="st11 st12 st22">e</tspan><tspan x="18.5" y="0" class="st11 st12 st22">s</tspan><tspan x="22.5" y="0" class="st11 st12 st22"> </tspan></text>
		</g>
	</g>
	<g>
		<defs>
			<rect id="SVGID_35_" x="59.4" y="134.6" width="52" height="42.4"/>
		</defs>
		<clipPath id="SVGID_36_">
			<use xlink:href="#SVGID_35_"  style="overflow:visible;"/>
		</clipPath>
		<g class="st31">
			<text transform="matrix(1 0 0 1 96.4202 145.8996)" class="st11 st12 st22">5</text>
		</g>
	</g>
	<g>
		<defs>
			<rect id="SVGID_37_" x="59.4" y="134.6" width="52" height="42.4"/>
		</defs>
		<clipPath id="SVGID_38_">
			<use xlink:href="#SVGID_37_"  style="overflow:visible;"/>
		</clipPath>
		<g class="st32">
			<text transform="matrix(1 0 0 1 78.8001 157.1496)"><tspan x="0" y="0" class="st11 st12 st22">1</tspan><tspan x="4" y="0" class="st11 st12 st22">3</tspan></text>
		</g>
	</g>
	<g>
		<defs>
			<rect id="SVGID_39_" x="59.4" y="134.6" width="52" height="42.4"/>
		</defs>
		<clipPath id="SVGID_40_">
			<use xlink:href="#SVGID_39_"  style="overflow:visible;"/>
		</clipPath>
		<g class="st33">
			<text transform="matrix(1 0 0 1 86.8001 157.1496)" class="st11 st12 st22">%</text>
		</g>
	</g>
	<g>
		<defs>
			<rect id="SVGID_41_" x="29" y="97" width="51.2" height="80"/>
		</defs>
		<clipPath id="SVGID_42_">
			<use xlink:href="#SVGID_41_"  style="overflow:visible;"/>
		</clipPath>
		<g class="st34">
			<text transform="matrix(1 0 0 1 41.4998 107.7248)"><tspan x="0" y="0" class="st11 st12 st22">S</tspan><tspan x="4.8" y="0" class="st11 st12 st22">e</tspan><tspan x="8.8" y="0" class="st11 st12 st22">r</tspan><tspan x="12" y="0" class="st11 st12 st22">i</tspan><tspan x="14.4" y="0" class="st11 st12 st22">e</tspan><tspan x="18.4" y="0" class="st11 st12 st22">s</tspan><tspan x="22.4" y="0" class="st11 st12 st22"> </tspan></text>
		</g>
	</g>
	<g>
		<defs>
			<rect id="SVGID_43_" x="29" y="97" width="51.2" height="80"/>
		</defs>
		<clipPath id="SVGID_44_">
			<use xlink:href="#SVGID_43_"  style="overflow:visible;"/>
		</clipPath>
		<g class="st35">
			<text transform="matrix(1 0 0 1 65.5501 107.7248)" class="st11 st12 st22">6</text>
		</g>
	</g>
	<g>
		<defs>
			<rect id="SVGID_45_" x="29" y="97" width="51.2" height="80"/>
		</defs>
		<clipPath id="SVGID_46_">
			<use xlink:href="#SVGID_45_"  style="overflow:visible;"/>
		</clipPath>
		<g class="st36">
			<text transform="matrix(1 0 0 1 47.9002 118.9748)"><tspan x="0" y="0" class="st11 st12 st22">1</tspan><tspan x="4" y="0" class="st11 st12 st22">3</tspan></text>
		</g>
	</g>
	<g>
		<defs>
			<rect id="SVGID_47_" x="29" y="97" width="51.2" height="80"/>
		</defs>
		<clipPath id="SVGID_48_">
			<use xlink:href="#SVGID_47_"  style="overflow:visible;"/>
		</clipPath>
		<g class="st37">
			<text transform="matrix(1 0 0 1 55.9251 118.9748)" class="st11 st12 st22">%</text>
		</g>
	</g>
	<g>
		<defs>
			<rect id="SVGID_49_" x="29" y="43.4" width="51.2" height="88.8"/>
		</defs>
		<clipPath id="SVGID_50_">
			<use xlink:href="#SVGID_49_"  style="overflow:visible;"/>
		</clipPath>
		<g class="st38">
			<text transform="matrix(1 0 0 1 41.4998 53.7297)"><tspan x="0" y="0" class="st11 st12 st13">S</tspan><tspan x="4.8" y="0" class="st11 st12 st13">e</tspan><tspan x="8.8" y="0" class="st11 st12 st13">r</tspan><tspan x="12" y="0" class="st11 st12 st13">i</tspan><tspan x="14.4" y="0" class="st11 st12 st13">e</tspan><tspan x="18.4" y="0" class="st11 st12 st13">s</tspan><tspan x="22.4" y="0" class="st11 st12 st13"> </tspan></text>
		</g>
	</g>
	<g>
		<defs>
			<rect id="SVGID_51_" x="29" y="43.4" width="51.2" height="88.8"/>
		</defs>
		<clipPath id="SVGID_52_">
			<use xlink:href="#SVGID_51_"  style="overflow:visible;"/>
		</clipPath>
		<g class="st39">
			<text transform="matrix(1 0 0 1 65.5501 53.7297)" class="st11 st12 st13">7</text>
		</g>
	</g>
	<g>
		<defs>
			<rect id="SVGID_53_" x="29" y="43.4" width="51.2" height="88.8"/>
		</defs>
		<clipPath id="SVGID_54_">
			<use xlink:href="#SVGID_53_"  style="overflow:visible;"/>
		</clipPath>
		<g class="st40">
			<text transform="matrix(1 0 0 1 47.9002 64.9797)"><tspan x="0" y="0" class="st11 st12 st13">1</tspan><tspan x="4" y="0" class="st11 st12 st13">3</tspan></text>
		</g>
	</g>
	<g>
		<defs>
			<rect id="SVGID_55_" x="29" y="43.4" width="51.2" height="88.8"/>
		</defs>
		<clipPath id="SVGID_56_">
			<use xlink:href="#SVGID_55_"  style="overflow:visible;"/>
		</clipPath>
		<g class="st41">
			<text transform="matrix(1 0 0 1 55.9251 64.9797)" class="st11 st12 st13">%</text>
		</g>
	</g>
	<g>
		<defs>
			<rect id="SVGID_57_" x="59.4" y="5" width="52" height="88.8"/>
		</defs>
		<clipPath id="SVGID_58_">
			<use xlink:href="#SVGID_57_"  style="overflow:visible;"/>
		</clipPath>
		<g class="st42">
			<text transform="matrix(1 0 0 1 72.3699 15.55)"><tspan x="0" y="0" class="st11 st12 st13">S</tspan><tspan x="4.8" y="0" class="st11 st12 st13">e</tspan><tspan x="8.8" y="0" class="st11 st12 st13">r</tspan><tspan x="12.1" y="0" class="st11 st12 st13">i</tspan><tspan x="14.5" y="0" class="st11 st12 st13">e</tspan><tspan x="18.5" y="0" class="st11 st12 st13">s</tspan><tspan x="22.5" y="0" class="st11 st12 st13"> </tspan></text>
		</g>
	</g>
	<g>
		<defs>
			<rect id="SVGID_59_" x="59.4" y="5" width="52" height="88.8"/>
		</defs>
		<clipPath id="SVGID_60_">
			<use xlink:href="#SVGID_59_"  style="overflow:visible;"/>
		</clipPath>
		<g class="st43">
			<text transform="matrix(1 0 0 1 96.4202 15.55)" class="st11 st12 st13">8</text>
		</g>
	</g>
	<g>
		<defs>
			<rect id="SVGID_61_" x="59.4" y="5" width="52" height="88.8"/>
		</defs>
		<clipPath id="SVGID_62_">
			<use xlink:href="#SVGID_61_"  style="overflow:visible;"/>
		</clipPath>
		<g class="st44">
			<text transform="matrix(1 0 0 1 78.8001 26.8)"><tspan x="0" y="0" class="st11 st12 st13">1</tspan><tspan x="4" y="0" class="st11 st12 st13">3</tspan></text>
		</g>
	</g>
	<g>
		<defs>
			<rect id="SVGID_63_" x="59.4" y="5" width="52" height="88.8"/>
		</defs>
		<clipPath id="SVGID_64_">
			<use xlink:href="#SVGID_63_"  style="overflow:visible;"/>
		</clipPath>
		<g class="st45">
			<text transform="matrix(1 0 0 1 86.8001 26.8)" class="st11 st12 st13">%</text>
		</g>
	</g>
</g>
</svg>
