<?xml version="1.0" encoding="utf-8"?>
<!-- Generator: Adobe Illustrator 20.0.0, SVG Export Plug-In . SVG Version: 6.00 Build 0)  -->
<svg version="1.1" id="Layer_1" xmlns="http://www.w3.org/2000/svg" xmlns:xlink="http://www.w3.org/1999/xlink" x="0px" y="0px"
	 viewBox="0 0 359 177" style="enable-background:new 0 0 359 177;" xml:space="preserve">
<style type="text/css">
	.st0{fill-rule:evenodd;clip-rule:evenodd;fill:#FFFFFF;}
	.st1{fill:#3398C5;}
	.st2{fill:none;stroke:#FFFFFF;stroke-width:0.8008;stroke-linejoin:round;stroke-miterlimit:10;}
	.st3{fill:#66CEF5;}
	.st4{fill:#9ED279;}
	.st5{fill:none;stroke:#191919;stroke-width:0.8;stroke-linejoin:round;stroke-miterlimit:10;}
	.st6{fill:none;stroke:#3C3C3C;stroke-width:0.8;stroke-linejoin:round;stroke-miterlimit:10;}
	.st7{fill:none;stroke:#194D6C;stroke-width:1.6;stroke-linecap:round;stroke-linejoin:round;stroke-miterlimit:10;}
	.st8{clip-path:url(#SVGID_2_);}
	.st9{fill:#3C3C3C;}
	.st10{font-family:'SourceSansPro-Regular';}
	.st11{font-size:8.85px;}
	.st12{clip-path:url(#SVGID_4_);}
	.st13{clip-path:url(#SVGID_6_);}
	.st14{font-size:8.825px;}
	.st15{clip-path:url(#SVGID_8_);}
	.st16{clip-path:url(#SVGID_10_);}
	.st17{clip-path:url(#SVGID_12_);}
	.st18{clip-path:url(#SVGID_14_);}
	.st19{clip-path:url(#SVGID_16_);}
	.st20{clip-path:url(#SVGID_18_);}
	.st21{clip-path:url(#SVGID_20_);}
	.st22{clip-path:url(#SVGID_22_);}
	.st23{clip-path:url(#SVGID_24_);}
	.st24{clip-path:url(#SVGID_26_);}
	.st25{clip-path:url(#SVGID_28_);}
	.st26{clip-path:url(#SVGID_30_);}
	.st27{clip-path:url(#SVGID_32_);}
	.st28{clip-path:url(#SVGID_34_);}
	.st29{clip-path:url(#SVGID_36_);}
	.st30{clip-path:url(#SVGID_38_);}
	.st31{clip-path:url(#SVGID_40_);}
	.st32{clip-path:url(#SVGID_42_);}
	.st33{clip-path:url(#SVGID_44_);}
	.st34{clip-path:url(#SVGID_46_);}
	.st35{clip-path:url(#SVGID_48_);}
	.st36{clip-path:url(#SVGID_50_);}
	.st37{clip-path:url(#SVGID_52_);}
	.st38{clip-path:url(#SVGID_54_);}
	.st39{clip-path:url(#SVGID_56_);}
	.st40{fill-rule:evenodd;clip-rule:evenodd;fill:#3398C5;}
	.st41{fill:none;stroke:#FFFFFF;stroke-width:0.8;stroke-linejoin:round;stroke-miterlimit:10;}
	.st42{clip-path:url(#SVGID_58_);}
	.st43{font-size:8.05px;}
	.st44{fill-rule:evenodd;clip-rule:evenodd;fill:#66CEF5;}
	.st45{clip-path:url(#SVGID_60_);}
	.st46{fill-rule:evenodd;clip-rule:evenodd;fill:#9ED279;}
	.st47{clip-path:url(#SVGID_62_);}
	.st48{clip-path:url(#SVGID_64_);}
</style>
<title>chart-1</title>
<g>
	<rect x="3.1" y="-0.3" class="st0" width="348.8" height="177.6"/>
	<rect x="23.9" y="24.5" class="st0" width="308.8" height="121.6"/>
	<path class="st1" d="M296.3,132h20.8v13.7h-20.8V132z M245.1,114.3h20v31.4h-20V114.3z M193.1,130.4h20.8v15.3h-20.8V130.4z
		 M141.9,115.9h20.8v29.8h-20.8V115.9z M90.7,110.3h20.8v35.4H90.7V110.3z M39.5,121.5h20v24.2h-20V121.5z"/>
	<path class="st2" d="M296.3,132h20.8v13.7h-20.8V132z M245.1,114.3h20v31.4h-20V114.3z M193.1,130.4h20.8v15.3h-20.8V130.4z
		 M141.9,115.9h20.8v29.8h-20.8V115.9z M90.7,110.3h20.8v35.4H90.7V110.3z M39.5,121.5h20v24.2h-20V121.5z"/>
	<path class="st3" d="M296.3,101.4h20.8V132h-20.8V101.4z M245.1,63.6h20v50.7h-20V63.6z M193.1,79.7h20.8v50.7h-20.8V79.7z
		 M141.9,74.8h20.8v41.1h-20.8V74.8z M90.7,79.7h20.8v30.6H90.7V79.7z M39.5,101.4h20v20.1h-20V101.4z"/>
	<path class="st2" d="M296.3,101.4h20.8V132h-20.8V101.4z M245.1,63.6h20v50.7h-20V63.6z M193.1,79.7h20.8v50.7h-20.8V79.7z
		 M141.9,74.8h20.8v41.1h-20.8V74.8z M90.7,79.7h20.8v30.6H90.7V79.7z M39.5,101.4h20v20.1h-20V101.4z"/>
	<path class="st4" d="M296.3,81.3h20.8v20.1h-20.8V81.3z M245.1,32.9h20v30.6h-20V32.9z M193.1,49.9h20.8v29.8h-20.8V49.9z
		 M141.9,45h20.8v29.8h-20.8V45z M90.7,55.5h20.8v24.2H90.7V55.5z M39.5,70.8h20v30.6h-20V70.8z"/>
	<path class="st2" d="M296.3,81.3h20.8v20.1h-20.8V81.3z M245.1,32.9h20v30.6h-20V32.9z M193.1,49.9h20.8v29.8h-20.8V49.9z
		 M141.9,45h20.8v29.8h-20.8V45z M90.7,55.5h20.8v24.2H90.7V55.5z M39.5,70.8h20v30.6h-20V70.8z"/>
	<line class="st5" x1="332.3" y1="144.9" x2="332.3" y2="24.9"/>
	<path class="st5" d="M332.3,24.9h2.4 M332.3,44.9h2.4 M332.3,64.9h2.4 M332.3,84.9h2.4 M332.3,104.9h2.4 M332.3,124.9h2.4
		 M332.3,144.9h2.4"/>
	<line class="st5" x1="23.5" y1="144.9" x2="23.5" y2="24.9"/>
	<path class="st5" d="M21.1,24.9h2.4 M21.1,44.9h2.4 M21.1,64.9h2.4 M21.1,84.9h2.4 M21.1,104.9h2.4 M21.1,124.9h2.4 M21.1,144.9
		h2.4"/>
	<line class="st6" x1="23.5" y1="144.9" x2="332.3" y2="144.9"/>
	<polyline class="st7" points="49.5,105.3 100.7,64.5 151.9,85.3 203.9,44.5 255.1,44.5 306.3,125.3 	"/>
	<g>
		<defs>
			<rect id="SVGID_1_" x="3.1" y="-0.3" width="348" height="176.8"/>
		</defs>
		<clipPath id="SVGID_2_">
			<use xlink:href="#SVGID_1_"  style="overflow:visible;"/>
		</clipPath>
		<g class="st8">
			<text transform="matrix(1 0 0 1 341.7502 148.425)" class="st9 st10 st11">0</text>
		</g>
	</g>
	<g>
		<defs>
			<rect id="SVGID_3_" x="3.1" y="-0.3" width="348" height="176.8"/>
		</defs>
		<clipPath id="SVGID_4_">
			<use xlink:href="#SVGID_3_"  style="overflow:visible;"/>
		</clipPath>
		<g class="st12">
			<text transform="matrix(1 0 0 1 341.7502 128.2502)" class="st9 st10 st11">5</text>
		</g>
	</g>
	<g>
		<defs>
			<rect id="SVGID_5_" x="3.1" y="-0.3" width="348" height="176.8"/>
		</defs>
		<clipPath id="SVGID_6_">
			<use xlink:href="#SVGID_5_"  style="overflow:visible;"/>
		</clipPath>
		<g class="st13">
			<text transform="matrix(1 0 0 1 341.5998 108.05)"><tspan x="0" y="0" class="st9 st10 st14">1</tspan><tspan x="4" y="0" class="st9 st10 st14">0</tspan></text>
		</g>
	</g>
	<g>
		<defs>
			<rect id="SVGID_7_" x="3.1" y="-0.3" width="348" height="176.8"/>
		</defs>
		<clipPath id="SVGID_8_">
			<use xlink:href="#SVGID_7_"  style="overflow:visible;"/>
		</clipPath>
		<g class="st15">
			<text transform="matrix(1 0 0 1 341.5998 87.8752)"><tspan x="0" y="0" class="st9 st10 st11">1</tspan><tspan x="4" y="0" class="st9 st10 st11">5</tspan></text>
		</g>
	</g>
	<g>
		<defs>
			<rect id="SVGID_9_" x="3.1" y="-0.3" width="348" height="176.8"/>
		</defs>
		<clipPath id="SVGID_10_">
			<use xlink:href="#SVGID_9_"  style="overflow:visible;"/>
		</clipPath>
		<g class="st16">
			<text transform="matrix(1 0 0 1 341.5998 67.6799)"><tspan x="0" y="0" class="st9 st10 st14">2</tspan><tspan x="4" y="0" class="st9 st10 st14">0</tspan></text>
		</g>
	</g>
	<g>
		<defs>
			<rect id="SVGID_11_" x="3.1" y="-0.3" width="348" height="176.8"/>
		</defs>
		<clipPath id="SVGID_12_">
			<use xlink:href="#SVGID_11_"  style="overflow:visible;"/>
		</clipPath>
		<g class="st17">
			<text transform="matrix(1 0 0 1 341.5998 47.5002)"><tspan x="0" y="0" class="st9 st10 st11">2</tspan><tspan x="4" y="0" class="st9 st10 st11">5</tspan></text>
		</g>
	</g>
	<g>
		<defs>
			<rect id="SVGID_13_" x="3.1" y="-0.3" width="348" height="176.8"/>
		</defs>
		<clipPath id="SVGID_14_">
			<use xlink:href="#SVGID_13_"  style="overflow:visible;"/>
		</clipPath>
		<g class="st18">
			<text transform="matrix(1 0 0 1 341.5998 27.3303)"><tspan x="0" y="0" class="st9 st10 st11">3</tspan><tspan x="4" y="0" class="st9 st10 st11">0</tspan></text>
		</g>
	</g>
	<g>
		<defs>
			<rect id="SVGID_15_" x="3.1" y="-0.3" width="348" height="176.8"/>
		</defs>
		<clipPath id="SVGID_16_">
			<use xlink:href="#SVGID_15_"  style="overflow:visible;"/>
		</clipPath>
		<g class="st19">
			<text transform="matrix(1 0 0 1 10.9748 148.425)" class="st9 st10 st11">0</text>
		</g>
	</g>
	<g>
		<defs>
			<rect id="SVGID_17_" x="3.1" y="-0.3" width="348" height="176.8"/>
		</defs>
		<clipPath id="SVGID_18_">
			<use xlink:href="#SVGID_17_"  style="overflow:visible;"/>
		</clipPath>
		<g class="st20">
			<text transform="matrix(1 0 0 1 6.3249 128.2502)"><tspan x="0" y="0" class="st9 st10 st11">1</tspan><tspan x="4" y="0" class="st9 st10 st11">0</tspan></text>
		</g>
	</g>
	<g>
		<defs>
			<rect id="SVGID_19_" x="3.1" y="-0.3" width="348" height="176.8"/>
		</defs>
		<clipPath id="SVGID_20_">
			<use xlink:href="#SVGID_19_"  style="overflow:visible;"/>
		</clipPath>
		<g class="st21">
			<text transform="matrix(1 0 0 1 6.3249 108.05)"><tspan x="0" y="0" class="st9 st10 st14">2</tspan><tspan x="4" y="0" class="st9 st10 st14">0</tspan></text>
		</g>
	</g>
	<g>
		<defs>
			<rect id="SVGID_21_" x="3.1" y="-0.3" width="348" height="176.8"/>
		</defs>
		<clipPath id="SVGID_22_">
			<use xlink:href="#SVGID_21_"  style="overflow:visible;"/>
		</clipPath>
		<g class="st22">
			<text transform="matrix(1 0 0 1 6.3249 87.8752)"><tspan x="0" y="0" class="st9 st10 st11">3</tspan><tspan x="4" y="0" class="st9 st10 st11">0</tspan></text>
		</g>
	</g>
	<g>
		<defs>
			<rect id="SVGID_23_" x="3.1" y="-0.3" width="348" height="176.8"/>
		</defs>
		<clipPath id="SVGID_24_">
			<use xlink:href="#SVGID_23_"  style="overflow:visible;"/>
		</clipPath>
		<g class="st23">
			<text transform="matrix(1 0 0 1 6.3249 67.6799)"><tspan x="0" y="0" class="st9 st10 st14">4</tspan><tspan x="4" y="0" class="st9 st10 st14">0</tspan></text>
		</g>
	</g>
	<g>
		<defs>
			<rect id="SVGID_25_" x="3.1" y="-0.3" width="348" height="176.8"/>
		</defs>
		<clipPath id="SVGID_26_">
			<use xlink:href="#SVGID_25_"  style="overflow:visible;"/>
		</clipPath>
		<g class="st24">
			<text transform="matrix(1 0 0 1 6.3249 47.5002)"><tspan x="0" y="0" class="st9 st10 st11">5</tspan><tspan x="4" y="0" class="st9 st10 st11">0</tspan></text>
		</g>
	</g>
	<g>
		<defs>
			<rect id="SVGID_27_" x="3.1" y="-0.3" width="348" height="176.8"/>
		</defs>
		<clipPath id="SVGID_28_">
			<use xlink:href="#SVGID_27_"  style="overflow:visible;"/>
		</clipPath>
		<g class="st25">
			<text transform="matrix(1 0 0 1 6.3249 27.3303)"><tspan x="0" y="0" class="st9 st10 st11">6</tspan><tspan x="4" y="0" class="st9 st10 st11">0</tspan></text>
		</g>
	</g>
	<g>
		<defs>
			<rect id="SVGID_29_" x="29.5" y="147.7" width="40" height="28.8"/>
		</defs>
		<clipPath id="SVGID_30_">
			<use xlink:href="#SVGID_29_"  style="overflow:visible;"/>
		</clipPath>
		<g class="st26">
			<text transform="matrix(1 0 0 1 35.0998 157.5998)"><tspan x="0" y="0" class="st9 st10 st14">S</tspan><tspan x="4.8" y="0" class="st9 st10 st14">e</tspan><tspan x="8.8" y="0" class="st9 st10 st14">r</tspan><tspan x="12" y="0" class="st9 st10 st14">i</tspan><tspan x="14.4" y="0" class="st9 st10 st14">e</tspan><tspan x="18.5" y="0" class="st9 st10 st14">s</tspan><tspan x="22.5" y="0" class="st9 st10 st14"> </tspan></text>
		</g>
	</g>
	<g>
		<defs>
			<rect id="SVGID_31_" x="29.5" y="147.7" width="40" height="28.8"/>
		</defs>
		<clipPath id="SVGID_32_">
			<use xlink:href="#SVGID_31_"  style="overflow:visible;"/>
		</clipPath>
		<g class="st27">
			<text transform="matrix(1 0 0 1 59.1501 157.5998)" class="st9 st10 st14">1</text>
		</g>
	</g>
	<g>
		<defs>
			<rect id="SVGID_33_" x="80.7" y="147.7" width="40" height="28.8"/>
		</defs>
		<clipPath id="SVGID_34_">
			<use xlink:href="#SVGID_33_"  style="overflow:visible;"/>
		</clipPath>
		<g class="st28">
			<text transform="matrix(1 0 0 1 86.5998 157.5998)"><tspan x="0" y="0" class="st9 st10 st14">S</tspan><tspan x="4.8" y="0" class="st9 st10 st14">e</tspan><tspan x="8.8" y="0" class="st9 st10 st14">r</tspan><tspan x="12.1" y="0" class="st9 st10 st14">i</tspan><tspan x="14.5" y="0" class="st9 st10 st14">e</tspan><tspan x="18.5" y="0" class="st9 st10 st14">s</tspan><tspan x="22.5" y="0" class="st9 st10 st14"> </tspan></text>
		</g>
	</g>
	<g>
		<defs>
			<rect id="SVGID_35_" x="80.7" y="147.7" width="40" height="28.8"/>
		</defs>
		<clipPath id="SVGID_36_">
			<use xlink:href="#SVGID_35_"  style="overflow:visible;"/>
		</clipPath>
		<g class="st29">
			<text transform="matrix(1 0 0 1 110.6701 157.5998)" class="st9 st10 st14">2</text>
		</g>
	</g>
	<g>
		<defs>
			<rect id="SVGID_37_" x="131.9" y="147.7" width="40.8" height="28.8"/>
		</defs>
		<clipPath id="SVGID_38_">
			<use xlink:href="#SVGID_37_"  style="overflow:visible;"/>
		</clipPath>
		<g class="st30">
			<text transform="matrix(1 0 0 1 138.1301 157.5998)"><tspan x="0" y="0" class="st9 st10 st14">S</tspan><tspan x="4.8" y="0" class="st9 st10 st14">e</tspan><tspan x="8.8" y="0" class="st9 st10 st14">r</tspan><tspan x="12" y="0" class="st9 st10 st14">i</tspan><tspan x="14.4" y="0" class="st9 st10 st14">e</tspan><tspan x="18.4" y="0" class="st9 st10 st14">s</tspan><tspan x="22.4" y="0" class="st9 st10 st14"> </tspan></text>
		</g>
	</g>
	<g>
		<defs>
			<rect id="SVGID_39_" x="131.9" y="147.7" width="40.8" height="28.8"/>
		</defs>
		<clipPath id="SVGID_40_">
			<use xlink:href="#SVGID_39_"  style="overflow:visible;"/>
		</clipPath>
		<g class="st31">
			<text transform="matrix(1 0 0 1 162.1799 157.5998)" class="st9 st10 st14">3</text>
		</g>
	</g>
	<g>
		<defs>
			<rect id="SVGID_41_" x="183.1" y="147.7" width="40.8" height="28.8"/>
		</defs>
		<clipPath id="SVGID_42_">
			<use xlink:href="#SVGID_41_"  style="overflow:visible;"/>
		</clipPath>
		<g class="st32">
			<text transform="matrix(1 0 0 1 189.6301 157.5998)"><tspan x="0" y="0" class="st9 st10 st14">S</tspan><tspan x="4.8" y="0" class="st9 st10 st14">e</tspan><tspan x="8.8" y="0" class="st9 st10 st14">r</tspan><tspan x="12" y="0" class="st9 st10 st14">i</tspan><tspan x="14.4" y="0" class="st9 st10 st14">e</tspan><tspan x="18.4" y="0" class="st9 st10 st14">s</tspan><tspan x="22.4" y="0" class="st9 st10 st14"> </tspan></text>
		</g>
	</g>
	<g>
		<defs>
			<rect id="SVGID_43_" x="183.1" y="147.7" width="40.8" height="28.8"/>
		</defs>
		<clipPath id="SVGID_44_">
			<use xlink:href="#SVGID_43_"  style="overflow:visible;"/>
		</clipPath>
		<g class="st33">
			<text transform="matrix(1 0 0 1 213.6799 157.5998)" class="st9 st10 st14">4</text>
		</g>
	</g>
	<g>
		<defs>
			<rect id="SVGID_45_" x="235.1" y="147.7" width="40" height="28.8"/>
		</defs>
		<clipPath id="SVGID_46_">
			<use xlink:href="#SVGID_45_"  style="overflow:visible;"/>
		</clipPath>
		<g class="st34">
			<text transform="matrix(1 0 0 1 241.1301 157.5998)"><tspan x="0" y="0" class="st9 st10 st14">S</tspan><tspan x="4.8" y="0" class="st9 st10 st14">e</tspan><tspan x="8.8" y="0" class="st9 st10 st14">r</tspan><tspan x="12" y="0" class="st9 st10 st14">i</tspan><tspan x="14.4" y="0" class="st9 st10 st14">e</tspan><tspan x="18.4" y="0" class="st9 st10 st14">s</tspan><tspan x="22.4" y="0" class="st9 st10 st14"> </tspan></text>
		</g>
	</g>
	<g>
		<defs>
			<rect id="SVGID_47_" x="235.1" y="147.7" width="40" height="28.8"/>
		</defs>
		<clipPath id="SVGID_48_">
			<use xlink:href="#SVGID_47_"  style="overflow:visible;"/>
		</clipPath>
		<g class="st35">
			<text transform="matrix(1 0 0 1 265.1799 157.5998)" class="st9 st10 st14">5</text>
		</g>
	</g>
	<g>
		<defs>
			<rect id="SVGID_49_" x="286.3" y="147.7" width="40" height="28.8"/>
		</defs>
		<clipPath id="SVGID_50_">
			<use xlink:href="#SVGID_49_"  style="overflow:visible;"/>
		</clipPath>
		<g class="st36">
			<text transform="matrix(1 0 0 1 292.6301 157.5998)"><tspan x="0" y="0" class="st9 st10 st14">S</tspan><tspan x="4.8" y="0" class="st9 st10 st14">e</tspan><tspan x="8.8" y="0" class="st9 st10 st14">r</tspan><tspan x="12.1" y="0" class="st9 st10 st14">i</tspan><tspan x="14.4" y="0" class="st9 st10 st14">e</tspan><tspan x="18.5" y="0" class="st9 st10 st14">s</tspan><tspan x="22.5" y="0" class="st9 st10 st14"> </tspan></text>
		</g>
	</g>
	<g>
		<defs>
			<rect id="SVGID_51_" x="286.3" y="147.7" width="40" height="28.8"/>
		</defs>
		<clipPath id="SVGID_52_">
			<use xlink:href="#SVGID_51_"  style="overflow:visible;"/>
		</clipPath>
		<g class="st37">
			<text transform="matrix(1 0 0 1 316.6799 157.5998)" class="st9 st10 st14">6</text>
		</g>
	</g>
	<g>
		<defs>
			<rect id="SVGID_53_" x="308.7" y="3.7" width="42.4" height="140.8"/>
		</defs>
		<clipPath id="SVGID_54_">
			<use xlink:href="#SVGID_53_"  style="overflow:visible;"/>
		</clipPath>
		<g class="st38">
			<text transform="matrix(1 0 0 1 315.5798 13.7199)"><tspan x="0" y="0" class="st9 st10 st14">A</tspan><tspan x="4.8" y="0" class="st9 st10 st14">x</tspan><tspan x="8.8" y="0" class="st9 st10 st14">i</tspan><tspan x="11.2" y="0" class="st9 st10 st14">s</tspan><tspan x="15.2" y="0" class="st9 st10 st14"> </tspan><tspan x="16.8" y="0" class="st9 st10 st14">T</tspan><tspan x="21.6" y="0" class="st9 st10 st14">i</tspan><tspan x="24" y="0" class="st9 st10 st14">t</tspan><tspan x="27.1" y="0" class="st9 st10 st14">l</tspan><tspan x="29.5" y="0" class="st9 st10 st14">e</tspan></text>
		</g>
	</g>
	<g>
		<defs>
			<rect id="SVGID_55_" x="3.1" y="3.7" width="42.4" height="140.8"/>
		</defs>
		<clipPath id="SVGID_56_">
			<use xlink:href="#SVGID_55_"  style="overflow:visible;"/>
		</clipPath>
		<g class="st39">
			<text transform="matrix(1 0 0 1 6.3498 13.7199)"><tspan x="0" y="0" class="st9 st10 st14">A</tspan><tspan x="4.8" y="0" class="st9 st10 st14">x</tspan><tspan x="8.8" y="0" class="st9 st10 st14">i</tspan><tspan x="11.2" y="0" class="st9 st10 st14">s</tspan><tspan x="15.2" y="0" class="st9 st10 st14"> </tspan><tspan x="16.8" y="0" class="st9 st10 st14">T</tspan><tspan x="21.7" y="0" class="st9 st10 st14">i</tspan><tspan x="24" y="0" class="st9 st10 st14">t</tspan><tspan x="27.2" y="0" class="st9 st10 st14">l</tspan><tspan x="29.6" y="0" class="st9 st10 st14">e</tspan></text>
		</g>
	</g>
	<rect x="91.5" y="166.5" class="st40" width="20" height="4.8"/>
	<rect x="91.5" y="166.5" class="st41" width="19.2" height="4"/>
	<g>
		<defs>
			<rect id="SVGID_57_" x="107.9" y="162.9" width="25.6" height="13.6"/>
		</defs>
		<clipPath id="SVGID_58_">
			<use xlink:href="#SVGID_57_"  style="overflow:visible;"/>
		</clipPath>
		<g class="st42">
			<text transform="matrix(1 0 0 1 113.1999 171.6252)" class="st9 st10 st43">2007</text>
		</g>
	</g>
	<rect x="137.9" y="166.5" class="st44" width="20" height="4.8"/>
	<rect x="137.9" y="166.5" class="st41" width="19.2" height="4"/>
	<g>
		<defs>
			<rect id="SVGID_59_" x="154.3" y="162.9" width="25.6" height="13.6"/>
		</defs>
		<clipPath id="SVGID_60_">
			<use xlink:href="#SVGID_59_"  style="overflow:visible;"/>
		</clipPath>
		<g class="st45">
			<text transform="matrix(1 0 0 1 159.5998 171.6252)" class="st9 st10 st43">2008</text>
		</g>
	</g>
	<rect x="184.3" y="166.5" class="st46" width="20" height="4.8"/>
	<rect x="184.3" y="166.5" class="st41" width="19.2" height="4"/>
	<g>
		<defs>
			<rect id="SVGID_61_" x="200.7" y="162.9" width="25.6" height="13.6"/>
		</defs>
		<clipPath id="SVGID_62_">
			<use xlink:href="#SVGID_61_"  style="overflow:visible;"/>
		</clipPath>
		<g class="st47">
			<text transform="matrix(1 0 0 1 205.9802 171.6252)" class="st9 st10 st43">2009</text>
		</g>
	</g>
	<line class="st7" x1="230.3" y1="168.5" x2="249.5" y2="168.5"/>
	<g>
		<defs>
			<rect id="SVGID_63_" x="247.1" y="162.9" width="25.6" height="13.6"/>
		</defs>
		<clipPath id="SVGID_64_">
			<use xlink:href="#SVGID_63_"  style="overflow:visible;"/>
		</clipPath>
		<g class="st48">
			<text transform="matrix(1 0 0 1 252.3801 171.6252)" class="st9 st10 st43">2006</text>
		</g>
	</g>
</g>
</svg>
