<?xml version="1.0" encoding="utf-8"?>
<!-- Generator: Adobe Illustrator 20.0.0, SVG Export Plug-In . SVG Version: 6.00 Build 0)  -->
<svg version="1.1" id="Layer_1" xmlns="http://www.w3.org/2000/svg" xmlns:xlink="http://www.w3.org/1999/xlink" x="0px" y="0px"
	 viewBox="0 0 244.8 177" style="enable-background:new 0 0 244.8 177;" xml:space="preserve">
<style type="text/css">
	.st0{fill-rule:evenodd;clip-rule:evenodd;fill:#FFFFFF;}
	.st1{fill:none;stroke:#E5E5E5;stroke-width:0.8;stroke-linejoin:round;stroke-miterlimit:10;}
	.st2{fill:none;stroke:#191919;stroke-width:0.8;stroke-linejoin:round;stroke-miterlimit:10;}
	
		.st3{clip-path:url(#SVGID_2_);fill:none;stroke:#007EB6;stroke-width:1.6;stroke-linecap:round;stroke-linejoin:round;stroke-miterlimit:10;}
	
		.st4{clip-path:url(#SVGID_4_);fill:none;stroke:#33BEF2;stroke-width:1.6;stroke-linecap:round;stroke-linejoin:round;stroke-miterlimit:10;}
	.st5{clip-path:url(#SVGID_6_);}
	.st6{fill:#3C3C3C;}
	.st7{font-family:'SourceSansPro-Regular';}
	.st8{font-size:8.825px;}
	.st9{clip-path:url(#SVGID_8_);}
	.st10{clip-path:url(#SVGID_10_);}
	.st11{font-size:8.85px;}
	.st12{clip-path:url(#SVGID_12_);}
	.st13{clip-path:url(#SVGID_14_);}
	.st14{clip-path:url(#SVGID_16_);}
	.st15{clip-path:url(#SVGID_18_);}
	.st16{clip-path:url(#SVGID_20_);}
	.st17{clip-path:url(#SVGID_22_);}
	.st18{clip-path:url(#SVGID_24_);}
	.st19{clip-path:url(#SVGID_26_);}
	.st20{clip-path:url(#SVGID_28_);}
	.st21{clip-path:url(#SVGID_30_);}
	.st22{clip-path:url(#SVGID_32_);}
	.st23{fill:none;stroke:#007EB6;stroke-width:1.6;stroke-linecap:round;stroke-linejoin:round;stroke-miterlimit:10;}
	.st24{clip-path:url(#SVGID_34_);}
	.st25{font-size:8.025px;}
	.st26{clip-path:url(#SVGID_36_);}
	.st27{fill:none;stroke:#33BEF2;stroke-width:1.6;stroke-linecap:round;stroke-linejoin:round;stroke-miterlimit:10;}
	.st28{clip-path:url(#SVGID_38_);}
	.st29{clip-path:url(#SVGID_40_);}
</style>
<title>chart-1</title>
<g>
	<rect x="0.9" y="0.6" class="st0" width="244" height="176.8"/>
	<rect x="21.7" y="24.6" class="st0" width="207.2" height="105.6"/>
	<path class="st1" d="M22.1,24.2h205.6 M22.1,45h205.6 M22.1,66.6h205.6 M22.1,87.4h205.6 M22.1,108.2h205.6"/>
	<line class="st2" x1="22.1" y1="129" x2="22.1" y2="24.2"/>
	<line class="st2" x1="22.1" y1="129" x2="227.7" y2="129"/>
	<g>
		<defs>
			<rect id="SVGID_1_" x="21.7" y="24.6" width="207.2" height="105.6"/>
		</defs>
		<clipPath id="SVGID_2_">
			<use xlink:href="#SVGID_1_"  style="overflow:visible;"/>
		</clipPath>
		<polyline class="st3" points="21.7,87 56.1,79 90.5,87 124.9,66.2 159.3,87 193.7,79 228.1,87 		"/>
	</g>
	<g>
		<defs>
			<rect id="SVGID_3_" x="21.7" y="24.6" width="207.2" height="105.6"/>
		</defs>
		<clipPath id="SVGID_4_">
			<use xlink:href="#SVGID_3_"  style="overflow:visible;"/>
		</clipPath>
		<polyline class="st4" points="21.7,45.4 56.1,55 90.5,66.2 124.9,79 159.3,45.4 193.7,55 228.1,66.2 		"/>
	</g>
	<g>
		<defs>
			<rect id="SVGID_5_" x="0.9" y="0.6" width="243.2" height="176"/>
		</defs>
		<clipPath id="SVGID_6_">
			<use xlink:href="#SVGID_5_"  style="overflow:visible;"/>
		</clipPath>
		<g class="st5">
			<text transform="matrix(1 0 0 1 9.1249 132.4254)" class="st6 st7 st8">0</text>
		</g>
	</g>
	<g>
		<defs>
			<rect id="SVGID_7_" x="0.9" y="0.6" width="243.2" height="176"/>
		</defs>
		<clipPath id="SVGID_8_">
			<use xlink:href="#SVGID_7_"  style="overflow:visible;"/>
		</clipPath>
		<g class="st9">
			<text transform="matrix(1 0 0 1 9.1249 111.3502)" class="st6 st7 st8">5</text>
		</g>
	</g>
	<g>
		<defs>
			<rect id="SVGID_9_" x="0.9" y="0.6" width="243.2" height="176"/>
		</defs>
		<clipPath id="SVGID_10_">
			<use xlink:href="#SVGID_9_"  style="overflow:visible;"/>
		</clipPath>
		<g class="st10">
			<text transform="matrix(1 0 0 1 4.475 90.3004)"><tspan x="0" y="0" class="st6 st7 st11">1</tspan><tspan x="4" y="0" class="st6 st7 st11">0</tspan></text>
		</g>
	</g>
	<g>
		<defs>
			<rect id="SVGID_11_" x="0.9" y="0.6" width="243.2" height="176"/>
		</defs>
		<clipPath id="SVGID_12_">
			<use xlink:href="#SVGID_11_"  style="overflow:visible;"/>
		</clipPath>
		<g class="st12">
			<text transform="matrix(1 0 0 1 4.475 69.2203)"><tspan x="0" y="0" class="st6 st7 st11">1</tspan><tspan x="4" y="0" class="st6 st7 st11">5</tspan></text>
		</g>
	</g>
	<g>
		<defs>
			<rect id="SVGID_13_" x="0.9" y="0.6" width="243.2" height="176"/>
		</defs>
		<clipPath id="SVGID_14_">
			<use xlink:href="#SVGID_13_"  style="overflow:visible;"/>
		</clipPath>
		<g class="st13">
			<text transform="matrix(1 0 0 1 4.475 48.15)"><tspan x="0" y="0" class="st6 st7 st11">2</tspan><tspan x="4" y="0" class="st6 st7 st11">0</tspan></text>
		</g>
	</g>
	<g>
		<defs>
			<rect id="SVGID_15_" x="0.9" y="0.6" width="243.2" height="176"/>
		</defs>
		<clipPath id="SVGID_16_">
			<use xlink:href="#SVGID_15_"  style="overflow:visible;"/>
		</clipPath>
		<g class="st14">
			<text transform="matrix(1 0 0 1 4.475 27.0699)"><tspan x="0" y="0" class="st6 st7 st8">2</tspan><tspan x="4" y="0" class="st6 st7 st8">5</tspan></text>
		</g>
	</g>
	<g>
		<defs>
			<rect id="SVGID_17_" x="7.3" y="131.8" width="28.8" height="43.2"/>
		</defs>
		<clipPath id="SVGID_18_">
			<use xlink:href="#SVGID_17_"  style="overflow:visible;"/>
		</clipPath>
		<g class="st15">
			<text transform="matrix(1 0 0 1 13.5751 141.6002)"><tspan x="0" y="0" class="st6 st7 st8">200</tspan><tspan x="12" y="0" class="st6 st7 st8">6</tspan></text>
		</g>
	</g>
	<g>
		<defs>
			<rect id="SVGID_19_" x="41.7" y="131.8" width="28.8" height="43.2"/>
		</defs>
		<clipPath id="SVGID_20_">
			<use xlink:href="#SVGID_19_"  style="overflow:visible;"/>
		</clipPath>
		<g class="st16">
			<text transform="matrix(1 0 0 1 48.0248 141.6002)"><tspan x="0" y="0" class="st6 st7 st8">200</tspan><tspan x="12.1" y="0" class="st6 st7 st8">7</tspan></text>
		</g>
	</g>
	<g>
		<defs>
			<rect id="SVGID_21_" x="76.1" y="131.8" width="28.8" height="43.2"/>
		</defs>
		<clipPath id="SVGID_22_">
			<use xlink:href="#SVGID_21_"  style="overflow:visible;"/>
		</clipPath>
		<g class="st17">
			<text transform="matrix(1 0 0 1 82.4999 141.6002)"><tspan x="0" y="0" class="st6 st7 st8">200</tspan><tspan x="12" y="0" class="st6 st7 st8">8</tspan></text>
		</g>
	</g>
	<g>
		<defs>
			<rect id="SVGID_23_" x="110.5" y="131.8" width="28.8" height="43.2"/>
		</defs>
		<clipPath id="SVGID_24_">
			<use xlink:href="#SVGID_23_"  style="overflow:visible;"/>
		</clipPath>
		<g class="st18">
			<text transform="matrix(1 0 0 1 116.9501 141.6002)"><tspan x="0" y="0" class="st6 st7 st8">200</tspan><tspan x="12.1" y="0" class="st6 st7 st8">9</tspan></text>
		</g>
	</g>
	<g>
		<defs>
			<rect id="SVGID_25_" x="144.9" y="131.8" width="28.8" height="43.2"/>
		</defs>
		<clipPath id="SVGID_26_">
			<use xlink:href="#SVGID_25_"  style="overflow:visible;"/>
		</clipPath>
		<g class="st19">
			<text transform="matrix(1 0 0 1 151.4301 141.6002)"><tspan x="0" y="0" class="st6 st7 st8">201</tspan><tspan x="12" y="0" class="st6 st7 st8">0</tspan></text>
		</g>
	</g>
	<g>
		<defs>
			<rect id="SVGID_27_" x="179.3" y="131.8" width="28.8" height="43.2"/>
		</defs>
		<clipPath id="SVGID_28_">
			<use xlink:href="#SVGID_27_"  style="overflow:visible;"/>
		</clipPath>
		<g class="st20">
			<text transform="matrix(1 0 0 1 185.87 141.6002)"><tspan x="0" y="0" class="st6 st7 st8">201</tspan><tspan x="12" y="0" class="st6 st7 st8">1</tspan></text>
		</g>
	</g>
	<g>
		<defs>
			<rect id="SVGID_29_" x="213.7" y="131.8" width="28.8" height="43.2"/>
		</defs>
		<clipPath id="SVGID_30_">
			<use xlink:href="#SVGID_29_"  style="overflow:visible;"/>
		</clipPath>
		<g class="st21">
			<text transform="matrix(1 0 0 1 220.35 141.6002)"><tspan x="0" y="0" class="st6 st7 st8">2</tspan><tspan x="4" y="0" class="st6 st7 st8">0</tspan><tspan x="8.1" y="0" class="st6 st7 st8">1</tspan><tspan x="12.1" y="0" class="st6 st7 st8">2</tspan></text>
		</g>
	</g>
	<g>
		<defs>
			<rect id="SVGID_31_" x="0.9" y="4.6" width="44.8" height="140.8"/>
		</defs>
		<clipPath id="SVGID_32_">
			<use xlink:href="#SVGID_31_"  style="overflow:visible;"/>
		</clipPath>
		<g class="st22">
			<text transform="matrix(1 0 0 1 5.6752 14.8697)"><tspan x="0" y="0" class="st6 st7 st11">A</tspan><tspan x="4.8" y="0" class="st6 st7 st11">x</tspan><tspan x="8.8" y="0" class="st6 st7 st11">i</tspan><tspan x="11.2" y="0" class="st6 st7 st11">s</tspan><tspan x="15.2" y="0" class="st6 st7 st11"> </tspan><tspan x="16.8" y="0" class="st6 st7 st11">T</tspan><tspan x="21.6" y="0" class="st6 st7 st11">i</tspan><tspan x="24" y="0" class="st6 st7 st11">t</tspan><tspan x="27.1" y="0" class="st6 st7 st11">l</tspan><tspan x="29.5" y="0" class="st6 st7 st11">e</tspan></text>
		</g>
	</g>
	<line class="st23" x1="72.1" y1="163" x2="91.3" y2="163"/>
	<g>
		<defs>
			<rect id="SVGID_33_" x="88.9" y="157.4" width="36" height="19.2"/>
		</defs>
		<clipPath id="SVGID_34_">
			<use xlink:href="#SVGID_33_"  style="overflow:visible;"/>
		</clipPath>
		<g class="st24">
			<text transform="matrix(1 0 0 1 93.975 165.9752)"><tspan x="0" y="0" class="st6 st7 st25">S</tspan><tspan x="4" y="0" class="st6 st7 st25">e</tspan><tspan x="8.1" y="0" class="st6 st7 st25">r</tspan><tspan x="10.5" y="0" class="st6 st7 st25">i</tspan><tspan x="12.1" y="0" class="st6 st7 st25">e</tspan><tspan x="16.1" y="0" class="st6 st7 st25">s</tspan><tspan x="19.3" y="0" class="st6 st7 st25"> </tspan></text>
		</g>
	</g>
	<g>
		<defs>
			<rect id="SVGID_35_" x="88.9" y="157.4" width="36" height="19.2"/>
		</defs>
		<clipPath id="SVGID_36_">
			<use xlink:href="#SVGID_35_"  style="overflow:visible;"/>
		</clipPath>
		<g class="st26">
			<text transform="matrix(1 0 0 1 114.85 165.9752)" class="st6 st7 st25">1</text>
		</g>
	</g>
	<line class="st27" x1="128.9" y1="163" x2="148.1" y2="163"/>
	<g>
		<defs>
			<rect id="SVGID_37_" x="144.9" y="157.4" width="36" height="19.2"/>
		</defs>
		<clipPath id="SVGID_38_">
			<use xlink:href="#SVGID_37_"  style="overflow:visible;"/>
		</clipPath>
		<g class="st28">
			<text transform="matrix(1 0 0 1 150.6498 165.9752)"><tspan x="0" y="0" class="st6 st7 st25">S</tspan><tspan x="4" y="0" class="st6 st7 st25">e</tspan><tspan x="8.1" y="0" class="st6 st7 st25">r</tspan><tspan x="10.5" y="0" class="st6 st7 st25">i</tspan><tspan x="12.1" y="0" class="st6 st7 st25">e</tspan><tspan x="16.1" y="0" class="st6 st7 st25">s</tspan><tspan x="19.4" y="0" class="st6 st7 st25"> </tspan></text>
		</g>
	</g>
	<g>
		<defs>
			<rect id="SVGID_39_" x="144.9" y="157.4" width="36" height="19.2"/>
		</defs>
		<clipPath id="SVGID_40_">
			<use xlink:href="#SVGID_39_"  style="overflow:visible;"/>
		</clipPath>
		<g class="st29">
			<text transform="matrix(1 0 0 1 171.5302 165.9752)" class="st6 st7 st25">2</text>
		</g>
	</g>
</g>
</svg>
